<svg xmlns="http://www.w3.org/2000/svg" height="564pt" version="1.1" viewBox="0 0 564 564" width="564pt">
<g id="surface1">
<path d="M 9.398438 216.199219 L 9.398438 535.800781 C 9.398438 546.183594 17.816406 554.601562 28.199219 554.601562 L 84.601562 554.601562 L 84.601562 216.199219 Z M 9.398438 216.199219 " style=" stroke:none;fill-rule:nonzero;fill:rgb(100%,96.862745%,83.921569%);fill-opacity:1;" />
<path d="M 9.398438 216.199219 L 554.601562 216.199219 L 554.601562 65.800781 L 9.398438 65.800781 Z M 9.398438 216.199219 " style=" stroke:none;fill-rule:nonzero;fill:rgb(100%,96.862745%,83.921569%);fill-opacity:1;" />
<path d="M 535.800781 9.398438 L 28.199219 9.398438 C 17.816406 9.398438 9.398438 17.816406 9.398438 28.199219 L 9.398438 65.800781 L 554.601562 65.800781 L 554.601562 28.199219 C 554.601562 17.816406 546.183594 9.398438 535.800781 9.398438 Z M 535.800781 9.398438 " style=" stroke:none;fill-rule:nonzero;fill:rgb(20%,54.117647%,95.294118%);fill-opacity:1;" />
<path d="M 84.601562 554.601562 L 535.800781 554.601562 C 546.183594 554.601562 554.601562 546.183594 554.601562 535.800781 L 554.601562 216.199219 L 84.601562 216.199219 Z M 84.601562 554.601562 " style=" stroke:none;fill-rule:nonzero;fill:rgb(60%,77.254902%,97.647059%);fill-opacity:1;" />
<path d="M 535.800781 0 L 28.199219 0 C 12.625 0 0 12.625 0 28.199219 L 0 535.800781 C 0 551.375 12.625 564 28.199219 564 L 535.800781 564 C 551.375 564 564 551.375 564 535.800781 L 564 28.199219 C 564 12.625 551.375 0 535.800781 0 Z M 28.199219 18.800781 L 535.800781 18.800781 C 540.992188 18.800781 545.199219 23.007812 545.199219 28.199219 L 545.199219 56.398438 L 18.800781 56.398438 L 18.800781 28.199219 C 18.800781 23.007812 23.007812 18.800781 28.199219 18.800781 Z M 18.800781 206.800781 L 18.800781 75.199219 L 545.199219 75.199219 L 545.199219 206.800781 Z M 18.800781 535.800781 L 18.800781 225.601562 L 75.199219 225.601562 L 75.199219 545.199219 L 28.199219 545.199219 C 23.007812 545.199219 18.800781 540.992188 18.800781 535.800781 Z M 535.800781 545.199219 L 94 545.199219 L 94 225.601562 L 545.199219 225.601562 L 545.199219 535.800781 C 545.199219 540.992188 540.992188 545.199219 535.800781 545.199219 Z M 535.800781 545.199219 " style=" stroke:none;fill-rule:nonzero;fill:rgb(13.72549%,12.156863%,12.54902%);fill-opacity:1;" />
<path d="M 37.601562 28.199219 L 56.398438 28.199219 L 56.398438 47 L 37.601562 47 Z M 37.601562 28.199219 " style=" stroke:none;fill-rule:nonzero;fill:rgb(13.72549%,12.156863%,12.54902%);fill-opacity:1;" />
<path d="M 84.601562 28.199219 L 103.398438 28.199219 L 103.398438 47 L 84.601562 47 Z M 84.601562 28.199219 " style=" stroke:none;fill-rule:nonzero;fill:rgb(13.72549%,12.156863%,12.54902%);fill-opacity:1;" />
<path d="M 131.601562 28.199219 L 150.398438 28.199219 L 150.398438 47 L 131.601562 47 Z M 131.601562 28.199219 " style=" stroke:none;fill-rule:nonzero;fill:rgb(13.72549%,12.156863%,12.54902%);fill-opacity:1;" />
<path d="M 432.398438 329 L 526.398438 329 L 526.398438 347.800781 L 432.398438 347.800781 Z M 432.398438 329 " style=" stroke:none;fill-rule:nonzero;fill:rgb(13.72549%,12.156863%,12.54902%);fill-opacity:1;" />
<path d="M 338.398438 329 L 423 329 L 423 347.800781 L 338.398438 347.800781 Z M 338.398438 329 " style=" stroke:none;fill-rule:nonzero;fill:rgb(13.72549%,12.156863%,12.54902%);fill-opacity:1;" />
<path d="M 310.199219 329 L 329 329 L 329 347.800781 L 310.199219 347.800781 Z M 310.199219 329 " style=" stroke:none;fill-rule:nonzero;fill:rgb(13.72549%,12.156863%,12.54902%);fill-opacity:1;" />
<path d="M 188 329 L 300.800781 329 L 300.800781 347.800781 L 188 347.800781 Z M 188 329 " style=" stroke:none;fill-rule:nonzero;fill:rgb(13.72549%,12.156863%,12.54902%);fill-opacity:1;" />
<path d="M 112.800781 329 L 178.601562 329 L 178.601562 347.800781 L 112.800781 347.800781 Z M 112.800781 329 " style=" stroke:none;fill-rule:nonzero;fill:rgb(13.72549%,12.156863%,12.54902%);fill-opacity:1;" />
<path d="M 432.398438 423 L 526.398438 423 L 526.398438 441.800781 L 432.398438 441.800781 Z M 432.398438 423 " style=" stroke:none;fill-rule:nonzero;fill:rgb(13.72549%,12.156863%,12.54902%);fill-opacity:1;" />
<path d="M 338.398438 423 L 423 423 L 423 441.800781 L 338.398438 441.800781 Z M 338.398438 423 " style=" stroke:none;fill-rule:nonzero;fill:rgb(13.72549%,12.156863%,12.54902%);fill-opacity:1;" />
<path d="M 310.199219 423 L 329 423 L 329 441.800781 L 310.199219 441.800781 Z M 310.199219 423 " style=" stroke:none;fill-rule:nonzero;fill:rgb(13.72549%,12.156863%,12.54902%);fill-opacity:1;" />
<path d="M 188 423 L 300.800781 423 L 300.800781 441.800781 L 188 441.800781 Z M 188 423 " style=" stroke:none;fill-rule:nonzero;fill:rgb(13.72549%,12.156863%,12.54902%);fill-opacity:1;" />
<path d="M 112.800781 423 L 178.601562 423 L 178.601562 441.800781 L 112.800781 441.800781 Z M 112.800781 423 " style=" stroke:none;fill-rule:nonzero;fill:rgb(13.72549%,12.156863%,12.54902%);fill-opacity:1;" />
<path d="M 112.800781 282 L 169.199219 282 L 169.199219 300.800781 L 112.800781 300.800781 Z M 112.800781 282 " style=" stroke:none;fill-rule:nonzero;fill:rgb(13.72549%,12.156863%,12.54902%);fill-opacity:1;" />
<path d="M 178.601562 282 L 263.199219 282 L 263.199219 300.800781 L 178.601562 300.800781 Z M 178.601562 282 " style=" stroke:none;fill-rule:nonzero;fill:rgb(13.72549%,12.156863%,12.54902%);fill-opacity:1;" />
<path d="M 272.601562 282 L 291.398438 282 L 291.398438 300.800781 L 272.601562 300.800781 Z M 272.601562 282 " style=" stroke:none;fill-rule:nonzero;fill:rgb(13.72549%,12.156863%,12.54902%);fill-opacity:1;" />
<path d="M 300.800781 282 L 413.601562 282 L 413.601562 300.800781 L 300.800781 300.800781 Z M 300.800781 282 " style=" stroke:none;fill-rule:nonzero;fill:rgb(13.72549%,12.156863%,12.54902%);fill-opacity:1;" />
<path d="M 423 282 L 526.398438 282 L 526.398438 300.800781 L 423 300.800781 Z M 423 282 " style=" stroke:none;fill-rule:nonzero;fill:rgb(13.72549%,12.156863%,12.54902%);fill-opacity:1;" />
<path d="M 112.800781 376 L 169.199219 376 L 169.199219 394.800781 L 112.800781 394.800781 Z M 112.800781 376 " style=" stroke:none;fill-rule:nonzero;fill:rgb(13.72549%,12.156863%,12.54902%);fill-opacity:1;" />
<path d="M 178.601562 376 L 263.199219 376 L 263.199219 394.800781 L 178.601562 394.800781 Z M 178.601562 376 " style=" stroke:none;fill-rule:nonzero;fill:rgb(13.72549%,12.156863%,12.54902%);fill-opacity:1;" />
<path d="M 272.601562 376 L 291.398438 376 L 291.398438 394.800781 L 272.601562 394.800781 Z M 272.601562 376 " style=" stroke:none;fill-rule:nonzero;fill:rgb(13.72549%,12.156863%,12.54902%);fill-opacity:1;" />
<path d="M 300.800781 376 L 413.601562 376 L 413.601562 394.800781 L 300.800781 394.800781 Z M 300.800781 376 " style=" stroke:none;fill-rule:nonzero;fill:rgb(13.72549%,12.156863%,12.54902%);fill-opacity:1;" />
<path d="M 423 376 L 526.398438 376 L 526.398438 394.800781 L 423 394.800781 Z M 423 376 " style=" stroke:none;fill-rule:nonzero;fill:rgb(13.72549%,12.156863%,12.54902%);fill-opacity:1;" />
<path d="M 112.800781 470 L 169.199219 470 L 169.199219 488.800781 L 112.800781 488.800781 Z M 112.800781 470 " style=" stroke:none;fill-rule:nonzero;fill:rgb(13.72549%,12.156863%,12.54902%);fill-opacity:1;" />
<path d="M 178.601562 470 L 263.199219 470 L 263.199219 488.800781 L 178.601562 488.800781 Z M 178.601562 470 " style=" stroke:none;fill-rule:nonzero;fill:rgb(13.72549%,12.156863%,12.54902%);fill-opacity:1;" />
<path d="M 272.601562 470 L 291.398438 470 L 291.398438 488.800781 L 272.601562 488.800781 Z M 272.601562 470 " style=" stroke:none;fill-rule:nonzero;fill:rgb(13.72549%,12.156863%,12.54902%);fill-opacity:1;" />
<path d="M 300.800781 470 L 413.601562 470 L 413.601562 488.800781 L 300.800781 488.800781 Z M 300.800781 470 " style=" stroke:none;fill-rule:nonzero;fill:rgb(13.72549%,12.156863%,12.54902%);fill-opacity:1;" />
<path d="M 423 470 L 526.398438 470 L 526.398438 488.800781 L 423 488.800781 Z M 423 470 " style=" stroke:none;fill-rule:nonzero;fill:rgb(13.72549%,12.156863%,12.54902%);fill-opacity:1;" />
</g>
</svg>