<svg id="Layer_35" enable-background="new 0 0 64 64" height="512" viewBox="0 0 64 64" width="512" xmlns="http://www.w3.org/2000/svg"><path d="m59 2v6h-14.59c-.26 0-.52.11-.7.29l-6.71 6.71-4-4 7.83-7.83c.75-.75 1.77-1.17 2.83-1.17z" fill="#e6e9ed"/><path d="m39 24v21c0 3.87-3.13 7-7 7h-5c-2.21 0-4 1.79-4 4v6h-8v-14h4 3 9c2.21 0 4-1.79 4-4v-10c0-1.1-.9-2-2-2h-4l-9.99.02c-2.22 0-4.01-1.79-4.01-4v-2.02-2c0-2.21 1.79-4 4-4h3l10-10 1 1 4 4 1 1-3 3v1c1.1 0 2.1.45 2.83 1.17.72.73 1.17 1.73 1.17 2.83z" fill="#969faa"/><path d="m22 36c1.1 0 2 .9 2 2 0 .55-.22 1.05-.59 1.41-.36.37-.86.59-1.41.59 1.1 0 2 .9 2 2 0 .55-.22 1.05-.59 1.41-.36.37-.86.59-1.41.59.55 0 1.05.22 1.41.59.37.36.59.86.59 1.41 0 1.1-.9 2-2 2h-3-4-3.51c-1.6 0-3.12-.63-4.25-1.76l-.24-.24h-5v-16h5l.56-.84c.92-1.38 2.37-2.31 4-2.59l3.44-.57v2.02c0 2.21 1.79 4 4.01 4l9.99-.02c1.1 0 2 .9 2 2 0 .56-.22 1.06-.58 1.42s-.86.58-1.42.58z" fill="#f0d0b4"/><path d="m33 24c1.1 0 2 .9 2 2 0 .55-.22 1.05-.59 1.41-.36.37-.86.59-1.41.59h-8c-1.1 0-2-.9-2-2 0-.55.22-1.05.59-1.41.36-.37.86-.59 1.41-.59z" fill="#fcd770"/><path d="m61.41 50.59c.37.36.59.86.59 1.41 0 1.1-.9 2-2 2h-6c-.55 0-1.05.22-1.41.59-.37.36-.59.86-.59 1.41 0 1.1.9 2 2 2h4c.55 0 1.05.22 1.41.59.37.36.59.86.59 1.41 0 1.1-.9 2-2 2h-27c-.55 0-1.05-.22-1.41-.59-.37-.36-.59-.86-.59-1.41 0-1.1.9-2 2-2h15c.55 0 1.05-.22 1.41-.59.37-.36.59-.86.59-1.41 0-1.1-.9-2-2-2h-1c-.55 0-1.05-.22-1.41-.59-.37-.36-.59-.86-.59-1.41 0-1.1.9-2 2-2h15c.55 0 1.05.22 1.41.59z" fill="#4fc1e9"/><path d="m62 36.71v.29c0 .83-.34 1.58-.88 2.12s-1.29.88-2.12.88c-1.66 0-3-1.34-3-3v-.29c0-.47.11-.93.32-1.34l2.68-5.37 2.68 5.37c.21.41.32.87.32 1.34z" fill="#69d6f4"/><path d="m62 20.71v.29c0 .83-.34 1.58-.88 2.12s-1.29.88-2.12.88c-1.66 0-3-1.34-3-3v-.29c0-.47.11-.93.32-1.34l2.68-5.37 2.68 5.37c.21.41.32.87.32 1.34z" fill="#69d6f4"/><path d="m40 45v-21c0-2.324-1.594-4.282-3.745-4.841l3.159-3.159-1-1 6-6h15.586v-8h-16.343c-1.336 0-2.592.521-3.536 1.465l-7.121 7.121-1-1-10.414 10.414h-2.586c-2.757 0-5 2.243-5 5v1.153l-2.601.433c-1.9.317-3.604 1.419-4.673 3.022l-.261.392h-5.465v18h5.586c1.316 1.29 3.054 2 4.899 2h2.515v14h10v-7c0-1.654 1.346-3 3-3h5c4.411 0 8-3.589 8-8zm1.535-41.121c.567-.567 1.32-.879 2.122-.879h14.343v4h-13.586c-.526 0-1.042.214-1.414.586l-6 6-2.586-2.586zm-33.586 41.656-.535-.535h-4.414v-14h4.535l.855-1.282c.764-1.146 1.98-1.933 3.338-2.159l2.272-.379v.835c0 1.337.521 2.594 1.467 3.538.944.943 2.198 1.462 3.532 1.462h.007l9.995-.013h.002c.266 0 .516.104.704.292s.293.44.293.707c0 .551-.448.999-.999.999h-7.001-3v2h3c.552 0 1 .448 1 1s-.448 1-1 1h-3v2h3c.552 0 1 .448 1 1s-.448 1-1 1h-3v2h3c.552 0 1 .448 1 1s-.448 1-1 1h-3-7.515c-1.336 0-2.591-.521-3.536-1.465zm16.271-1.535c.48-.532.78-1.229.78-2s-.301-1.468-.78-2c.48-.532.78-1.229.78-2 0-.352-.072-.686-.184-1h4.185c1.653 0 2.999-1.346 2.999-2.999 0-.348-.069-.683-.182-1.001h1.182c.552 0 1 .448 1 1v10c0 1.654-1.346 3-3 3h-6.184c.112-.314.184-.648.184-1 0-.771-.301-1.468-.78-2zm-2.22 12v5h-6v-12h3 3 9c2.757 0 5-2.243 5-5v-10c0-1.654-1.346-3-3-3h-4v.003c-.001 0-.001 0-.002 0l-9.994.013c-.002 0-.003 0-.005 0-.8 0-1.553-.312-2.119-.877-.568-.568-.88-1.322-.88-2.123v-4.016c0-1.654 1.346-3 3-3h3.414l9.586-9.586 4.586 4.586-2.586 2.586v2.414h1c1.654 0 3 1.346 3 3v21c0 3.309-2.691 6-6 6h-5c-2.757 0-5 2.243-5 5z"/><path d="m62.578 18.919-3.578-7.154-3.578 7.155c-.276.553-.422 1.171-.422 1.788v.292c0 2.206 1.794 4 4 4s4-1.794 4-4v-.292c0-.617-.146-1.235-.422-1.789zm-1.578 2.081c0 1.103-.897 2-2 2s-2-.897-2-2v-.292c0-.309.073-.618.211-.895l1.789-3.578 1.789 3.577c.138.278.211.587.211.896z"/><path d="m59 27.765-3.578 7.155c-.276.553-.422 1.171-.422 1.788v.292c0 2.206 1.794 4 4 4s4-1.794 4-4v-.292c0-.617-.146-1.235-.422-1.789zm2 9.235c0 1.103-.897 2-2 2s-2-.897-2-2v-.292c0-.309.073-.618.211-.895l1.789-3.578 1.789 3.577c.138.278.211.587.211.896z"/><path d="m60 49h-15c-1.654 0-3 1.346-3 3s1.346 3 3 3h1c.552 0 1 .448 1 1s-.448 1-1 1h-15c-1.654 0-3 1.346-3 3s1.346 3 3 3h27c1.654 0 3-1.346 3-3s-1.346-3-3-3h-4c-.552 0-1-.448-1-1s.448-1 1-1h6c1.654 0 3-1.346 3-3s-1.346-3-3-3zm0 4h-6c-1.654 0-3 1.346-3 3s1.346 3 3 3h4c.552 0 1 .448 1 1s-.448 1-1 1h-27c-.552 0-1-.448-1-1s.448-1 1-1h15c1.654 0 3-1.346 3-3s-1.346-3-3-3h-1c-.552 0-1-.448-1-1s.448-1 1-1h15c.552 0 1 .448 1 1s-.448 1-1 1z"/><path d="m18 27h2v2h-2z"/><path d="m18 23h2v2h-2z"/><path d="m33 23h-8c-1.654 0-3 1.346-3 3s1.346 3 3 3h8c1.654 0 3-1.346 3-3s-1.346-3-3-3zm0 4h-8c-.552 0-1-.448-1-1s.448-1 1-1h8c.552 0 1 .448 1 1s-.448 1-1 1z"/></svg>