<svg height="459pt" viewBox="0 0 459 459.00789" width="459pt" xmlns="http://www.w3.org/2000/svg"><path d="m450.5 165.296875-35.539062 35.621094-.199219-.199219-42.480469-42.492188 35.609375-35.527343zm0 0" fill="#fedb41"/><path d="m341.472656 274.566406-39.101562 39.191406-42.929688-42.929687v-.011719l82.140625-81.949218 30.699219-30.640626 42.480469 42.492188.199219.199219zm0 0" fill="#00acea"/><path d="m259.441406 270.816406v.011719l-21.570312 64.488281 64.5-21.558594 39.101562-39.191406v175.941406h-333.953125v-443h252.992188v80.949219h80.960937v100.300781l.109375.109376zm0 0" fill="#00efd1"/><path d="m341.472656 88.457031h-80.960937v-80.949219zm0 0" fill="#00acea"/><path d="m259.441406 270.828125 42.929688 42.929687-64.5 21.558594zm0 0" fill="#fedb41"/><g fill="#083863"><path d="m7.519531 459.007812h333.953125c4.417969 0 7.539063-4.082031 7.539063-8.5v-172.628906l106.921875-106.929687c3.152344-3.09375 3.199218-8.15625.109375-11.308594l-42.550781-42.601563c-3.203126-3.121093-8.304688-3.121093-11.511719-.003906l-52.96875 52.652344v-81.230469c.085937-2.09375-.675781-4.132812-2.113281-5.65625l-80.84375-80.699219c-1.484376-1.429687-3.488282-2.1874995-5.542969-2.0937495h-252.992188c-2.015625-.09375-3.980469.6640625-5.410156 2.0937495-1.429687 1.425782-2.1914062 3.386719-2.0976562 5.40625v443c0 4.417969 3.0898432 8.5 7.5078122 8.5zm400.367188-325 31.308593 31.300782-24.238281 24.292968-31.355469-31.367187zm-35.613281 35.53125 31.382812 31.386719-101.289062 101.507813-31.609376-31.601563zm-84.699219 140.734376-37.023438 12.375 12.378907-37.019532zm-19.5625-283.453126 54.144531 53.1875h-54.144531zm-252-10.8125h236v72.449219c0 4.417969 4.082031 7.550781 8.5 7.550781h72.5v89.644532l-79.449219 79.5c-.90625.878906-1.566406 1.980468-1.90625 3.199218l-11.199219 33.65625h-172.746093c-4.417969 0-8 3.582032-8 8 0 4.417969 3.582031 8 8 8h167.394531l-4.820313 14.59375c-.960937 2.847657-.210937 5.992188 1.929688 8.097657.5625.566406 1.199218 1.300781 1.878906 1.300781h-166.382812c-4.417969 0-8 3.582031-8 8s3.582031 8 8 8h213.011718c4.417969 0 8-3.582031 8-8s-3.582031-8-8-8h-38.710937l62.898437-20.835938c1.105469-.363281 2.105469-1 2.902344-1.847656l25.199219-25.402344v149.09375h-317zm0 0"/><path d="m280.722656 382.007812h-213.011718c-4.417969 0-8 3.582032-8 8 0 4.417969 3.582031 8 8 8h213.011718c4.417969 0 8-3.582031 8-8 0-4.417968-3.582031-8-8-8zm0 0"/><path d="m67.710938 278.007812h113.011718c4.417969 0 8-3.582031 8-8 0-4.417968-3.582031-8-8-8h-113.011718c-4.417969 0-8 3.582032-8 8 0 4.417969 3.582031 8 8 8zm0 0"/></g></svg>